<svg width="60" height="60" viewBox="0 0 60 60" fill="none" xmlns="http://www.w3.org/2000/svg">
<circle cx="30" cy="30" r="29" stroke="#008F2B" stroke-width="2"/>
<mask id="mask0" mask-type="alpha" maskUnits="userSpaceOnUse" x="11" y="13" width="38" height="34">
<path d="M22.9368 47C37.2761 47 45.1224 33.9154 45.1224 22.5876C45.1224 22.2195 45.1224 21.8514 45.1072 21.4833C46.6278 20.2785 47.9508 18.7559 49 17.0325C47.601 17.7185 46.0956 18.1703 44.5142 18.3878C46.126 17.3337 47.3577 15.6437 47.9508 13.6358C46.4454 14.623 44.7727 15.3258 42.9936 15.7106C41.5642 14.0374 39.5418 13 37.3065 13C33.0032 13 29.5058 16.8484 29.5058 21.5837C29.5058 22.253 29.5818 22.9055 29.7035 23.5413C23.2257 23.19 17.4778 19.7598 13.6307 14.5728C12.9616 15.8445 12.5814 17.3169 12.5814 18.8898C12.5814 21.8681 13.9652 24.4951 16.0484 26.0344C14.7711 25.9843 13.5698 25.5994 12.5206 24.9636C12.5206 24.997 12.5206 25.0305 12.5206 25.0807C12.5206 29.2303 15.2121 32.7106 18.7703 33.497C18.1164 33.6978 17.4322 33.7982 16.7175 33.7982C16.2157 33.7982 15.7291 33.748 15.2577 33.6476C16.2461 37.061 19.1353 39.5374 22.5414 39.6043C19.8651 41.9134 16.5046 43.2854 12.8551 43.2854C12.2317 43.2854 11.6082 43.252 11 43.1683C14.4366 45.5778 18.5422 47 22.9368 47Z" fill="white"/>
</mask>
<g mask="url(#mask0)">
<circle cx="30" cy="30" r="30" fill="#008F2B"/>
</g>
</svg>
